<mxfile host="Electron" modified="2023-12-05T12:13:35.166Z" agent="Mozilla/5.0 (Windows NT 10.0; Win64; x64) AppleWebKit/537.36 (KHTML, like Gecko) draw.io/22.1.2 Chrome/114.0.5735.289 Electron/25.9.4 Safari/537.36" etag="O8lwK-r0wsw2qEn_6WqY" version="22.1.2" type="device">
  <diagram name="Page-1" id="ogQR0vbufsRBDoe3NQwy">
    <mxGraphModel dx="1425" dy="700" grid="1" gridSize="10" guides="1" tooltips="1" connect="1" arrows="1" fold="1" page="1" pageScale="1" pageWidth="1100" pageHeight="850" math="0" shadow="0">
      <root>
        <mxCell id="0" />
        <mxCell id="1" parent="0" />
        <mxCell id="HPTZdlK3wLMst6nRDZPx-6" value="" style="rounded=0;whiteSpace=wrap;html=1;" parent="1" vertex="1">
          <mxGeometry x="78" y="220" width="280" height="158" as="geometry" />
        </mxCell>
        <mxCell id="HPTZdlK3wLMst6nRDZPx-9" value="" style="rounded=0;orthogonalLoop=1;jettySize=auto;html=1;" parent="1" source="_ZGS0wOMplei5ZUW_Q5_-1" target="HPTZdlK3wLMst6nRDZPx-4" edge="1">
          <mxGeometry relative="1" as="geometry" />
        </mxCell>
        <mxCell id="_ZGS0wOMplei5ZUW_Q5_-1" value="Community CTI" style="shape=cylinder3;whiteSpace=wrap;html=1;boundedLbl=1;backgroundOutline=1;size=15;strokeColor=#000000;fillColor=none;" parent="1" vertex="1">
          <mxGeometry x="270" y="263" width="60" height="80" as="geometry" />
        </mxCell>
        <mxCell id="HPTZdlK3wLMst6nRDZPx-33" style="rounded=0;orthogonalLoop=1;jettySize=auto;html=1;" parent="1" source="HPTZdlK3wLMst6nRDZPx-4" target="HPTZdlK3wLMst6nRDZPx-20" edge="1">
          <mxGeometry relative="1" as="geometry" />
        </mxCell>
        <mxCell id="HPTZdlK3wLMst6nRDZPx-4" value="Threat Intelligence Platform" style="ellipse;whiteSpace=wrap;html=1;aspect=fixed;strokeColor=#000000;fillColor=#FFFFFF;" parent="1" vertex="1">
          <mxGeometry x="155" y="401" width="132" height="71" as="geometry" />
        </mxCell>
        <mxCell id="HPTZdlK3wLMst6nRDZPx-12" style="rounded=0;orthogonalLoop=1;jettySize=auto;html=1;exitX=0.5;exitY=1;exitDx=0;exitDy=0;exitPerimeter=0;" parent="1" source="HPTZdlK3wLMst6nRDZPx-5" target="HPTZdlK3wLMst6nRDZPx-4" edge="1">
          <mxGeometry relative="1" as="geometry" />
        </mxCell>
        <mxCell id="HPTZdlK3wLMst6nRDZPx-5" value="Open-Source CTI" style="shape=cylinder3;whiteSpace=wrap;html=1;boundedLbl=1;backgroundOutline=1;size=15;" parent="1" vertex="1">
          <mxGeometry x="180" y="263" width="78" height="80" as="geometry" />
        </mxCell>
        <mxCell id="HPTZdlK3wLMst6nRDZPx-7" value="CTI Sources" style="text;html=1;strokeColor=none;fillColor=none;align=center;verticalAlign=middle;whiteSpace=wrap;rounded=0;" parent="1" vertex="1">
          <mxGeometry x="180" y="220" width="82" height="30" as="geometry" />
        </mxCell>
        <mxCell id="HPTZdlK3wLMst6nRDZPx-13" style="rounded=0;orthogonalLoop=1;jettySize=auto;html=1;exitX=0.5;exitY=1;exitDx=0;exitDy=0;exitPerimeter=0;" parent="1" source="HPTZdlK3wLMst6nRDZPx-8" target="HPTZdlK3wLMst6nRDZPx-4" edge="1">
          <mxGeometry relative="1" as="geometry" />
        </mxCell>
        <mxCell id="HPTZdlK3wLMst6nRDZPx-8" value="Intelligence Providers" style="shape=cylinder3;whiteSpace=wrap;html=1;boundedLbl=1;backgroundOutline=1;size=15;" parent="1" vertex="1">
          <mxGeometry x="100" y="263" width="60" height="80" as="geometry" />
        </mxCell>
        <mxCell id="HPTZdlK3wLMst6nRDZPx-20" value="Security Tools:&lt;br style=&quot;border-color: var(--border-color);&quot;&gt;SIEM / Firewall / IPS / SOAR" style="rounded=1;whiteSpace=wrap;html=1;" parent="1" vertex="1">
          <mxGeometry x="54" y="511" width="165" height="47" as="geometry" />
        </mxCell>
        <mxCell id="3gBBq3_8BAuG9XJp2O-Q-1" value="Security Analyst" style="shape=umlActor;verticalLabelPosition=bottom;verticalAlign=top;html=1;outlineConnect=0;" vertex="1" parent="1">
          <mxGeometry x="270" y="496" width="26" height="52" as="geometry" />
        </mxCell>
        <mxCell id="3gBBq3_8BAuG9XJp2O-Q-4" style="rounded=0;orthogonalLoop=1;jettySize=auto;html=1;" edge="1" parent="1" source="HPTZdlK3wLMst6nRDZPx-4" target="3gBBq3_8BAuG9XJp2O-Q-1">
          <mxGeometry relative="1" as="geometry" />
        </mxCell>
        <mxCell id="3gBBq3_8BAuG9XJp2O-Q-6" style="rounded=0;orthogonalLoop=1;jettySize=auto;html=1;" edge="1" parent="1" source="3gBBq3_8BAuG9XJp2O-Q-5" target="HPTZdlK3wLMst6nRDZPx-4">
          <mxGeometry relative="1" as="geometry" />
        </mxCell>
        <mxCell id="3gBBq3_8BAuG9XJp2O-Q-5" value="Internal Sensors" style="ellipse;whiteSpace=wrap;html=1;" vertex="1" parent="1">
          <mxGeometry x="340" y="398" width="106" height="51" as="geometry" />
        </mxCell>
      </root>
    </mxGraphModel>
  </diagram>
</mxfile>
